<svg xmlns="http://www.w3.org/2000/svg" width="1024" height="1024" viewBox="0 0 1024 1024" version="1.1">
	<path d="M 0 512.001 L 0 1024.002 512.250 1023.751 L 1024.500 1023.500 1024.751 511.750 L 1025.002 0 512.501 0 L 0 0 0 512.001 M 0.496 512.500 C 0.496 794.100, 0.610 909.151, 0.750 768.168 C 0.890 627.186, 0.890 396.786, 0.750 256.168 C 0.610 115.551, 0.496 230.900, 0.496 512.500 M 448.334 227.614 C 446.186 230.892, 447.415 235.815, 450.580 236.609 L 453 237.217 453 270.727 L 453 304.238 438.641 318.369 C 430.744 326.141, 418.931 338.053, 412.391 344.839 L 400.500 357.179 400.500 371.077 C 400.500 382.148, 400.788 385.087, 401.917 385.521 C 404.233 386.411, 405.641 384.256, 404.225 381.989 C 403.448 380.744, 403 375.926, 403 368.804 L 403 357.581 429.627 330.836 L 456.253 304.091 455.595 273.843 C 455.233 257.206, 454.701 242.657, 454.414 241.511 C 454.045 240.042, 454.791 238.626, 456.945 236.706 C 462.424 231.825, 460.180 225.015, 453.160 225.215 C 450.868 225.280, 449.377 226.021, 448.334 227.614 M 449.341 227.257 C 448.923 227.934, 449.192 228.007, 450.095 227.463 C 451.267 226.757, 451.285 226.882, 450.204 228.216 C 448.684 230.092, 449.140 235.443, 450.834 235.625 C 451.475 235.694, 452.702 235.806, 453.559 235.875 C 454.501 235.951, 454.839 236.495, 454.412 237.250 C 453.892 238.171, 454.074 238.158, 455.103 237.200 C 455.871 236.485, 456.520 235.360, 456.545 234.700 C 456.570 234.040, 457.020 233.575, 457.545 233.667 C 458.604 233.852, 458.706 228.373, 457.664 227.331 C 456.539 226.205, 450.027 226.147, 449.341 227.257 M 485.455 248.455 C 482.459 251.450, 482.351 253.905, 485.061 257.350 C 486.697 259.431, 487.778 259.884, 490.311 259.552 C 492.065 259.323, 493.783 259.105, 494.129 259.067 C 495.472 258.923, 497.194 252.908, 496.585 250.484 C 495.974 248.048, 492.687 246, 489.389 246 C 488.575 246, 486.805 247.105, 485.455 248.455 M 489.699 247.634 C 489.416 247.918, 488.355 248.280, 487.342 248.439 C 486.211 248.616, 485.622 249.398, 485.817 250.464 C 486.005 251.493, 485.699 251.932, 485.067 251.541 C 484.439 251.153, 484 251.754, 484 253 C 484 254.246, 484.439 254.847, 485.067 254.459 C 485.700 254.068, 486.005 254.510, 485.817 255.547 C 485.590 256.797, 486.283 257.405, 488.251 257.682 C 492.144 258.229, 494.694 256.542, 495.201 253.081 C 495.442 251.444, 495.270 250.333, 494.819 250.612 C 494.369 250.890, 494 250.750, 494 250.300 C 494 249.223, 490.364 246.969, 489.699 247.634 M 322.229 260.669 C 321.530 260.951, 320.294 262.465, 319.482 264.034 C 316.828 269.167, 320.544 274.906, 326.561 274.968 C 333.284 275.038, 336.591 266.782, 331.686 262.174 C 329.503 260.124, 325.262 259.449, 322.229 260.669 M 323.519 262.031 C 323.772 262.439, 323.308 263.329, 322.489 264.009 C 320.875 265.349, 320.547 268.738, 321.836 270.768 C 322.278 271.466, 324.080 272.449, 325.840 272.954 C 328.123 273.609, 328.843 273.555, 328.355 272.766 C 327.917 272.056, 328.257 271.885, 329.304 272.286 C 330.202 272.631, 331.277 272.370, 331.694 271.706 C 332.473 270.467, 332.834 263.834, 332.081 264.586 C 331.851 264.816, 330.951 264.387, 330.081 263.633 C 328.390 262.166, 322.752 260.789, 323.519 262.031 M 357.252 289.846 C 334.476 312.157, 332.807 313.577, 329.752 313.234 C 322.979 312.474, 320.166 319.166, 325.375 323.646 L 328 325.904 328 341.714 L 328 357.523 337.049 359.741 C 346.595 362.081, 364.271 368.797, 369.750 372.165 L 373 374.163 373 369.313 C 373 364.767, 372.591 363.998, 366.500 357.076 C 360.504 350.263, 360 349.332, 360 345.072 C 360 340.638, 360.311 340.145, 367.750 332.770 L 375.500 325.087 394.137 324.925 L 412.775 324.764 422.118 315.382 C 427.256 310.222, 431.077 306, 430.608 306 C 430.139 306, 430.345 305.212, 431.065 304.250 C 431.786 303.288, 427.896 306.887, 422.420 312.250 L 412.464 322 393.460 322 L 374.456 322 366.228 330.271 L 358 338.542 358 344.885 C 358 351.075, 358.126 351.377, 363.196 357.364 C 366.053 360.739, 368.956 364.185, 369.645 365.023 C 370.408 365.950, 370.564 367.088, 370.043 367.931 C 369.323 369.096, 368.631 369.053, 365.691 367.658 C 363.769 366.746, 359.114 364.685, 355.348 363.079 L 348.500 360.160 348.221 347.018 L 347.941 333.875 368.987 312.254 C 382.518 298.353, 389.688 290.288, 389.067 289.667 C 388.446 289.046, 380.423 296.521, 366.596 310.601 L 345.091 332.500 345.046 345.605 L 345 358.710 337.835 357.026 C 328.827 354.909, 328.629 354.454, 329.557 338 C 330.205 326.512, 330.459 325.317, 332.694 323.240 C 334.370 321.682, 335.028 320.128, 334.813 318.240 C 334.538 315.835, 337.309 312.762, 357.500 293.088 C 370.150 280.761, 380.512 270.186, 380.526 269.588 C 380.541 268.989, 380.905 267.938, 381.335 267.250 C 381.766 266.563, 381.979 266.021, 381.809 266.047 C 381.639 266.072, 370.588 276.782, 357.252 289.846 M 330.564 270.707 C 330.022 272.132, 330.136 272.247, 331.124 271.267 C 331.808 270.588, 332.115 269.781, 331.807 269.474 C 331.499 269.166, 330.940 269.721, 330.564 270.707 M 361.989 286.736 L 344.500 304.472 361.989 287.486 C 377.967 271.967, 380.830 269, 379.823 269 C 379.633 269, 371.608 276.981, 361.989 286.736 M 310.668 279.214 C 306.873 282.606, 304.109 285.840, 304.386 286.563 C 304.658 287.273, 304.149 288.449, 303.253 289.177 C 301.830 290.334, 301.716 290.249, 302.345 288.500 C 302.890 286.987, 302.510 287.158, 300.783 289.203 C 299.527 290.690, 297.375 292.828, 296 293.955 C 293.972 295.617, 293.877 295.874, 295.500 295.315 C 297.269 294.705, 297.343 294.819, 296.137 296.302 C 295.387 297.224, 294.305 297.688, 293.732 297.334 C 293.151 296.975, 292.987 297.171, 293.362 297.776 C 293.731 298.373, 293.575 299.144, 293.016 299.490 C 292.457 299.835, 292 299.581, 292 298.924 C 292 298.268, 291.079 298.901, 289.954 300.332 C 288.247 302.502, 287.965 304.060, 288.258 309.717 L 288.608 316.500 288.804 309.191 C 288.912 305.171, 289.368 302.109, 289.817 302.387 C 290.266 302.665, 297.066 296.448, 304.927 288.573 C 319.433 274.041, 323.048 268.148, 310.668 279.214 M 313 278.377 C 310.525 280.759, 307.616 283.786, 306.536 285.104 C 305.455 286.422, 307.593 284.588, 311.286 281.029 C 317.404 275.132, 318.491 273.955, 317.750 274.023 C 317.613 274.036, 315.475 275.995, 313 278.377 M 468.655 276.829 C 465.842 279.937, 466.545 283.799, 470.331 286.033 L 473.661 287.998 473.426 297.887 C 473.296 303.326, 472.713 308.667, 472.130 309.756 C 471.547 310.846, 471.280 312.021, 471.535 312.369 C 471.791 312.716, 471.684 312.759, 471.297 312.463 C 470.910 312.168, 462.585 319.926, 452.797 329.703 C 439.107 343.377, 435 348.063, 435 350.009 C 435 351.875, 432.504 355.025, 425.500 362 L 416 371.460 416 379.014 L 416 386.568 410.719 391.784 C 405.056 397.377, 402.076 398.215, 396.315 395.839 C 394.767 395.200, 393.129 394.761, 392.676 394.863 C 392.222 394.966, 392.125 394.607, 392.460 394.065 C 392.794 393.524, 391.365 391.193, 389.284 388.886 L 385.500 384.691 385.685 369.956 C 385.866 355.587, 385.935 355.156, 388.435 352.655 C 391.406 349.685, 391.594 348.294, 389.443 345.223 C 387.595 342.583, 382.904 342.239, 380.571 344.571 C 378.408 346.735, 378.603 350.330, 381 352.500 C 382.841 354.166, 383 355.580, 383 370.293 L 383 386.276 387.199 390.888 C 393.454 397.756, 395.704 398.986, 402.034 398.993 C 407.393 399, 407.734 398.832, 412.784 393.719 L 418 388.437 418 381.028 L 418 373.619 427.500 363.950 C 434.029 357.304, 437 353.550, 437 351.944 C 437 350.251, 442.224 344.340, 456 330.449 L 475 311.289 475 298.767 C 475 288.856, 475.313 285.985, 476.500 285 C 478.237 283.558, 478.458 279.725, 476.965 276.934 C 475.632 274.444, 470.868 274.384, 468.655 276.829 M 469.930 278.584 C 468.279 280.574, 469.793 283.364, 472.766 283.808 C 475.282 284.184, 476.748 280.606, 474.960 278.452 C 473.392 276.562, 471.568 276.610, 469.930 278.584 M 394.352 279.018 C 391.759 280.034, 390.965 281.220, 389.995 285.523 C 389.354 288.363, 389.614 289.078, 391.896 290.765 C 396.121 293.888, 398.220 294.152, 401.753 292.004 C 404.810 290.145, 405.592 288.241, 405.043 284 C 404.556 280.246, 398.463 277.407, 394.352 279.018 M 394.176 281.844 C 393.384 282.362, 392.982 284.068, 393.176 286.087 C 393.430 288.737, 394.096 289.672, 396.272 290.433 C 398.570 291.236, 399.415 291.029, 401.222 289.222 C 403.029 287.415, 403.236 286.570, 402.433 284.272 C 401.704 282.186, 400.725 281.435, 398.482 281.239 C 396.842 281.096, 394.904 281.368, 394.176 281.844 M 434.750 286.875 C 434.337 288.731, 434.014 291.881, 434.030 293.875 C 434.055 296.828, 434.250 297.175, 435.083 295.746 C 435.644 294.781, 435.968 291.631, 435.802 288.746 C 435.518 283.815, 435.455 283.702, 434.750 286.875 M 298.924 292.750 L 296.500 295.500 299.250 293.076 C 300.762 291.742, 302 290.505, 302 290.326 C 302 289.541, 301.190 290.180, 298.924 292.750 M 272.813 296.683 C 273.534 296.972, 274.397 296.936, 274.729 296.604 C 275.061 296.272, 274.471 296.036, 273.417 296.079 C 272.252 296.127, 272.015 296.364, 272.813 296.683 M 269.031 298.463 C 268.373 299.255, 267.985 300.559, 268.167 301.361 C 268.413 302.435, 268.959 302.202, 270.251 300.469 C 272.141 297.935, 271.010 296.078, 269.031 298.463 M 275.530 297.951 C 274.906 298.961, 275.590 299.395, 277.325 299.093 C 278.273 298.928, 277.204 302.938, 275.845 304.642 C 274.631 306.164, 271 307.067, 271 305.847 C 271 305.316, 270.588 305.136, 270.085 305.447 C 269.582 305.758, 268.943 305.447, 268.664 304.756 C 268.285 303.816, 268.138 303.806, 268.079 304.715 C 267.975 306.313, 270.888 307.673, 273.920 307.442 C 276.738 307.226, 279 304.550, 279 301.431 C 279 298.841, 276.518 296.352, 275.530 297.951 M 379.405 299.250 L 377.500 301.500 379.750 299.595 C 381.864 297.805, 382.455 297, 381.655 297 C 381.465 297, 380.453 298.012, 379.405 299.250 M 422.473 313.250 L 415.500 320.500 422.750 313.527 C 426.738 309.692, 430 306.429, 430 306.277 C 430 305.543, 428.950 306.516, 422.473 313.250 M 337.437 310.250 L 334.500 313.500 337.750 310.563 C 340.779 307.825, 341.460 307, 340.687 307 C 340.515 307, 339.052 308.462, 337.437 310.250 M 273.320 315 C 273.320 318.575, 273.502 320.038, 273.723 318.250 C 273.945 316.462, 273.945 313.538, 273.723 311.750 C 273.502 309.962, 273.320 311.425, 273.320 315 M 485.721 317.431 C 480.809 324.215, 458.313 346.247, 454.722 347.789 C 451.122 349.336, 450.393 351.432, 451.954 355.749 L 453.218 359.245 443.609 368.891 L 434 378.536 434 383.733 C 434 388.109, 433.644 389.115, 431.750 390.101 C 430.512 390.745, 425.605 394.810, 420.844 399.136 L 412.187 407 398.955 407 L 385.723 407 374.817 396.128 C 364.164 385.508, 363.633 385.134, 351.963 380.025 C 340.384 374.955, 324.106 370.029, 319 370.050 C 315.025 370.067, 318.639 371.718, 326.642 373.541 C 346.687 378.108, 366.901 389.723, 378.269 403.204 C 383.540 409.456, 386.257 410.142, 402.500 409.329 L 415.500 408.678 421.792 401.895 C 429.935 393.116, 433.986 390.651, 441.500 389.902 L 447.500 389.305 441.750 389.152 L 436 389 436 384.158 L 436 379.315 449.084 366.532 C 459.918 355.947, 462.056 353.384, 461.520 351.625 C 461.163 350.456, 460.788 349.023, 460.686 348.440 C 460.584 347.857, 466.741 340.882, 474.369 332.940 C 489.441 317.247, 491.778 314.348, 490.399 313.054 C 489.889 312.576, 487.864 314.471, 485.721 317.431 M 488 316 C 487.411 317.100, 487.155 318, 487.430 318 C 487.705 318, 488.411 317.100, 489 316 C 489.589 314.900, 489.845 314, 489.570 314 C 489.295 314, 488.589 314.900, 488 316 M 326.080 316.404 C 324.580 318.211, 325.467 321.581, 327.665 322.425 C 329.992 323.318, 332.146 321.058, 331.801 318.086 C 331.449 315.062, 328.028 314.056, 326.080 316.404 M 305.311 343.251 C 305.432 360.310, 305.862 369.994, 306.500 369.980 C 307.050 369.968, 307.438 368.281, 307.362 366.229 C 307.286 364.178, 307.080 352.975, 306.904 341.333 C 306.728 329.691, 306.256 319.341, 305.854 318.333 C 305.452 317.325, 305.208 328.538, 305.311 343.251 M 272.632 331.232 C 272.142 336.729, 272.142 343.473, 272.632 346.732 L 273.500 352.500 273.792 344.750 C 273.953 340.488, 273.953 333.512, 273.792 329.250 L 273.500 321.500 272.632 331.232 M 288.079 325.583 C 288.127 326.748, 288.364 326.985, 288.683 326.188 C 288.972 325.466, 288.936 324.603, 288.604 324.271 C 288.272 323.939, 288.036 324.529, 288.079 325.583 M 287.827 349.986 L 287.500 367.472 281.129 369.190 C 277.625 370.135, 274.602 371.064, 274.412 371.255 C 274.222 371.445, 274.420 372.925, 274.853 374.543 C 275.546 377.133, 275.705 377.237, 276.183 375.408 C 276.603 373.803, 278.089 373.042, 282.729 372.057 C 290.221 370.468, 291.747 369.613, 290.289 367.826 C 289.585 366.964, 289.325 361.317, 289.545 351.679 C 289.731 343.527, 289.494 335.877, 289.018 334.679 C 288.465 333.287, 288.035 338.817, 287.827 349.986 M 382.051 346.439 C 379.521 349.487, 383.513 353.479, 386.561 350.949 C 387.406 350.248, 387.962 348.736, 387.798 347.588 C 387.432 345.023, 383.824 344.302, 382.051 346.439 M 453.938 351.117 C 453.053 352.770, 453.116 353.545, 454.225 354.653 C 455.959 356.387, 458.630 355.522, 459.286 353.015 C 460.291 349.171, 455.827 347.586, 453.938 351.117 M 272.631 353.788 C 272.363 354.222, 267.821 356.323, 262.538 358.459 C 256.666 360.832, 253.409 362.635, 254.157 363.097 C 254.831 363.513, 256.538 363.256, 257.950 362.526 C 259.363 361.795, 263.552 359.808, 267.260 358.110 C 270.967 356.412, 274 354.568, 274 354.011 C 274 352.804, 273.309 352.691, 272.631 353.788 M 247.300 379 C 247.300 382.025, 247.487 383.262, 247.716 381.750 C 247.945 380.238, 247.945 377.762, 247.716 376.250 C 247.487 374.738, 247.300 375.975, 247.300 379 M 298 380.660 C 286.600 381.186, 286 381.432, 286 385.585 C 286 391.389, 287.420 393, 292.535 393 L 297 393 297 396.856 L 297 400.713 289.793 401.383 C 282.065 402.101, 273.127 404.165, 266.822 406.688 C 260.283 409.304, 263.131 409.098, 271.051 406.381 C 275.148 404.976, 283 403.303, 288.500 402.663 C 296.059 401.784, 298.540 401.133, 298.664 400 C 298.753 399.175, 299.111 396.813, 299.459 394.750 L 300.091 391 305.409 391 C 316.283 391, 330.462 394.929, 343.866 401.656 C 351.683 405.579, 352.446 405.778, 353.640 404.206 C 354.353 403.267, 354.951 402.219, 354.968 401.875 C 354.986 401.531, 356.117 401.250, 357.482 401.250 C 358.929 401.250, 359.698 401.679, 359.327 402.280 C 358.959 402.875, 359.181 403.006, 359.853 402.591 C 360.499 402.191, 361.274 402.551, 361.600 403.401 C 362.174 404.895, 359.667 409.267, 355.678 413.733 L 353.682 415.967 350.091 413.885 L 346.500 411.802 349 413.938 C 350.375 415.112, 353.444 417.449, 355.820 419.132 C 360.499 422.447, 360.796 422.359, 364.094 416.672 C 364.764 415.516, 365.768 415.079, 366.827 415.482 C 368.207 416.007, 368.270 415.889, 367.188 414.809 C 366.107 413.730, 365.404 414.064, 363.188 416.712 C 360.780 419.589, 360.307 419.779, 358.652 418.530 C 356.894 417.204, 356.978 416.909, 360.402 412.424 C 362.381 409.833, 364.011 407.215, 364.024 406.606 C 364.037 405.998, 369.041 410.675, 375.143 417 C 387.082 429.373, 387.910 429.526, 378.580 417.633 C 360.211 394.217, 327.677 379.289, 298 380.660 M 451.158 382.520 C 446.610 386.347, 446.988 390.908, 452.072 393.537 C 456.014 395.576, 457.714 395.377, 460.545 392.545 C 465.006 388.085, 463.191 382.077, 456.908 380.509 C 454.954 380.022, 453.539 380.517, 451.158 382.520 M 272.018 382.478 L 268.535 383.667 271.412 384.389 C 274.286 385.110, 276.548 384.014, 275.863 382.232 C 275.645 381.667, 274.104 381.766, 272.018 382.478 M 291.250 382.706 C 289.574 383.028, 288.962 383.887, 288.850 386.070 C 288.767 387.681, 288.655 389.519, 288.600 390.154 C 288.454 391.839, 296.542 391.601, 298.274 389.869 C 299.429 388.714, 301.595 388.568, 309.274 389.130 C 320.410 389.944, 332.027 393.262, 343.496 398.903 C 351.438 402.810, 354 402.939, 354 399.434 C 354 397.600, 337.504 389.520, 327.654 386.531 C 316.209 383.057, 298.880 381.236, 291.250 382.706 M 451.950 385.093 C 449.287 390.069, 454.035 394.518, 458.728 391.443 C 461.188 389.831, 461.735 386.135, 459.800 384.200 C 457.823 382.223, 453.205 382.749, 451.950 385.093 M 265.543 384.931 C 264.878 386.007, 266.835 387.498, 267.733 386.600 C 268.063 386.270, 267.696 385.993, 266.917 385.985 C 265.750 385.972, 265.765 385.798, 267 385 C 267.901 384.418, 268.025 384.025, 267.309 384.015 C 266.654 384.007, 265.859 384.419, 265.543 384.931 M 527.203 385.256 C 523.512 389.703, 525.510 396.294, 530.907 397.480 C 538.064 399.052, 541.772 390.915, 536.363 385.506 C 534.537 383.679, 528.645 383.518, 527.203 385.256 M 529.366 385.700 C 529.717 386.051, 529.288 387.129, 528.412 388.097 C 526.329 390.399, 527.406 393.772, 530.704 395.275 C 532.909 396.279, 533.478 396.128, 535.117 394.103 C 538.278 390.200, 537.255 387.507, 532.044 386.013 C 530.220 385.490, 529.015 385.349, 529.366 385.700 M 494.199 391.744 C 498.984 391.927, 507.084 391.928, 512.199 391.746 C 517.315 391.564, 513.400 391.414, 503.500 391.413 C 493.600 391.412, 489.415 391.561, 494.199 391.744 M 482.733 393.124 C 483.412 393.808, 484.219 394.115, 484.526 393.807 C 484.834 393.499, 484.279 392.940, 483.293 392.564 C 481.868 392.022, 481.753 392.136, 482.733 393.124 M 271 395.147 C 267.425 396.266, 264.050 397.657, 263.500 398.237 C 262.818 398.958, 262.899 399.068, 263.753 398.586 C 264.443 398.196, 269.168 396.802, 274.253 395.488 C 279.339 394.174, 282.150 393.101, 280.500 393.105 C 278.850 393.109, 274.575 394.028, 271 395.147 M 479.160 394.240 C 478.522 394.878, 478 397.235, 478 399.477 C 478 403.195, 477.386 404.163, 471.028 410.472 C 467.194 414.277, 464.270 417.603, 464.531 417.864 C 464.791 418.124, 464.234 419.274, 463.292 420.419 C 462.350 421.563, 465.621 418.563, 470.560 413.750 L 479.540 405 498.562 405 L 517.584 405 521.957 409.457 C 524.363 411.908, 526.737 413.663, 527.233 413.356 C 527.728 413.050, 528.009 413.407, 527.858 414.150 C 527.706 414.892, 528.234 416.512, 529.031 417.750 C 530.473 419.987, 530.628 420, 556.118 420 C 577.687 420, 581.953 420.238, 583 421.500 C 584.355 423.133, 587.564 423.515, 588.411 422.144 C 588.702 421.674, 587.834 421.500, 586.482 421.759 C 583.233 422.380, 582.023 419.507, 584.625 417.346 C 586.120 416.104, 585.937 416.123, 583.720 417.437 C 581.319 418.861, 577.537 419.067, 555.970 418.948 C 542.236 418.872, 531.234 418.430, 531.522 417.965 C 532.174 416.909, 526.073 409.837, 525.052 410.468 C 524.642 410.721, 523.028 409.595, 521.466 407.964 C 518.614 404.987, 518.929 403.915, 521.970 406.250 C 522.866 406.938, 522.538 406.488, 521.243 405.250 C 518.966 403.074, 518.245 403, 499.413 403 C 482.150 403, 479.864 402.810, 479.297 401.332 C 478.945 400.414, 479.382 398.399, 480.269 396.854 C 481.938 393.945, 481.199 392.201, 479.160 394.240 M 498.762 393.707 C 500.006 393.946, 501.806 393.937, 502.762 393.687 C 503.718 393.437, 502.700 393.241, 500.500 393.252 C 498.300 393.263, 497.518 393.468, 498.762 393.707 M 510.250 393.728 C 512.313 393.944, 515.688 393.944, 517.750 393.728 C 519.813 393.513, 518.125 393.336, 514 393.336 C 509.875 393.336, 508.188 393.513, 510.250 393.728 M 420.971 400.750 L 414.500 407.500 421.250 401.029 C 424.962 397.470, 428 394.432, 428 394.279 C 428 393.543, 426.982 394.480, 420.971 400.750 M 303 401.850 C 303 402.249, 304.370 402.679, 306.044 402.807 C 315.200 403.504, 333.123 409.270, 338.295 413.182 C 339.985 414.459, 339.915 414.707, 337.116 417.388 L 334.143 420.238 331.135 418.096 C 322.057 411.632, 307.083 407.049, 294.934 407.017 C 281.847 406.983, 266.698 411.518, 255.306 418.881 C 245.242 425.385, 228.025 444.257, 226.786 450.142 C 226.629 450.889, 226.133 451.770, 225.684 452.100 C 225.234 452.430, 224.772 453.330, 224.655 454.100 C 224.539 454.870, 224.072 456.096, 223.617 456.824 C 223.163 457.552, 222.681 459.352, 222.547 460.824 C 222.413 462.296, 222.011 465.300, 221.654 467.500 C 221.222 470.156, 221.783 469.131, 223.324 464.452 C 228.996 447.227, 241.881 429.222, 254.347 421.099 C 262.020 416.101, 272.886 411.688, 281.816 409.946 C 290.511 408.250, 304.878 409.227, 312.500 412.034 C 319.421 414.583, 333.733 423.201, 342.642 430.185 C 346.020 432.833, 349.071 435, 349.422 435 C 350.937 435, 345.087 428.510, 340.595 425.208 L 335.690 421.602 339.845 418.024 C 342.130 416.056, 344 413.644, 344 412.664 C 344 411.572, 344.447 411.158, 345.155 411.595 C 345.892 412.051, 346.037 411.868, 345.555 411.089 C 344.983 410.164, 344.379 410.252, 343.049 411.456 C 341.435 412.916, 340.708 412.765, 333.898 409.563 C 324.396 405.095, 303 399.754, 303 401.850 M 329 402 C 329.825 402.533, 330.950 402.969, 331.500 402.969 C 332.050 402.969, 331.825 402.533, 331 402 C 330.175 401.467, 329.050 401.031, 328.500 401.031 C 327.950 401.031, 328.175 401.467, 329 402 M 470.469 412.250 L 464.500 418.500 470.750 412.531 C 476.556 406.987, 477.458 406, 476.719 406 C 476.564 406, 473.751 408.813, 470.469 412.250 M 528.762 408.707 C 530.006 408.946, 531.806 408.937, 532.762 408.687 C 533.718 408.437, 532.700 408.241, 530.500 408.252 C 528.300 408.263, 527.518 408.468, 528.762 408.707 M 253.250 413.115 C 249.841 415.298, 248.738 416.764, 251.750 415.108 C 254.044 413.847, 257.639 411.068, 257 411.049 C 256.725 411.040, 255.037 411.970, 253.250 413.115 M 284.250 413.666 C 283.838 413.757, 279.675 414.993, 275 416.411 C 259.357 421.157, 255.002 424.175, 239.685 440.884 C 228.083 453.541, 224.589 460.594, 220.915 478.773 C 219.739 484.592, 221.410 500.884, 224.065 509.500 C 230.883 531.621, 250.897 551.577, 273.876 559.165 C 282.766 562.101, 284.567 562.349, 297.500 562.420 C 317.088 562.528, 326.826 559.516, 343.246 548.271 L 351.191 542.830 353.845 545.150 C 355.305 546.426, 356.950 547.841, 357.500 548.294 C 358.065 548.760, 357.792 548.849, 356.873 548.499 C 355.856 548.113, 352.429 549.719, 347.740 552.780 C 343.612 555.475, 335.794 559.613, 330.367 561.976 C 319.392 566.754, 318.116 567.483, 322.502 566.470 C 326.949 565.443, 345.880 556.329, 349.838 553.310 C 352.452 551.316, 353.663 550.933, 354.903 551.707 C 356.073 552.438, 356.892 552.341, 357.806 551.363 C 360.261 548.734, 361.323 550.029, 358.944 552.750 C 357.621 554.263, 358.856 553.303, 361.687 550.618 C 364.772 547.694, 366.619 545.172, 366.295 544.327 C 365.998 543.552, 366.229 543.049, 366.808 543.209 C 368.417 543.653, 372.948 537.028, 372.260 535.236 C 371.892 534.275, 372.071 533.926, 372.725 534.330 C 373.311 534.692, 374.048 534.316, 374.364 533.494 C 374.679 532.672, 374.528 532, 374.027 532 C 372.622 532, 363.997 544.453, 365.125 544.854 C 365.674 545.048, 365.373 546.035, 364.458 547.047 C 362.620 549.077, 362.819 549.171, 355.753 542.938 C 351.501 539.187, 350.811 538.895, 349.130 540.126 C 328.934 554.912, 318.066 558.952, 298.410 558.983 C 264.329 559.036, 237.050 538.832, 226.872 506 C 224.950 499.800, 224.553 496.334, 224.582 486 C 224.614 475.044, 224.954 472.526, 227.342 465.618 C 231.449 453.736, 237.286 444.603, 246.933 434.966 C 253.521 428.386, 257.233 425.577, 263 422.809 C 272.051 418.464, 285.189 415.043, 293.440 414.882 C 296.773 414.817, 300.850 414.431, 302.500 414.026 C 304.972 413.418, 286.974 413.063, 284.250 413.666 M 204.405 416.250 L 202.500 418.500 204.750 416.595 C 205.988 415.547, 207 414.535, 207 414.345 C 207 413.545, 206.195 414.136, 204.405 416.250 M 225.218 423.451 C 217.497 431.608, 207.257 445.590, 208.266 446.599 C 208.536 446.869, 209.893 445.158, 211.281 442.795 C 214.291 437.672, 218.457 432.358, 224.655 425.731 L 229.216 420.855 231.608 423.102 C 234.226 425.561, 234.921 424.675, 232.485 421.983 C 231.123 420.478, 231.181 420.040, 233.057 417.654 C 237.572 411.915, 232.794 415.448, 225.218 423.451 M 528 415.378 C 528 415.585, 528.788 416.373, 529.750 417.128 C 531.336 418.371, 531.371 418.336, 530.128 416.750 C 528.821 415.084, 528 414.555, 528 415.378 M 648 416.279 C 648 417.254, 662.171 416.954, 666.500 415.888 C 668.273 415.451, 665.103 415.211, 658.750 415.301 C 652.837 415.385, 648 415.825, 648 416.279 M 690.813 415.683 C 691.534 415.972, 692.397 415.936, 692.729 415.604 C 693.061 415.272, 692.471 415.036, 691.417 415.079 C 690.252 415.127, 690.015 415.364, 690.813 415.683 M 697.813 415.683 C 698.534 415.972, 699.397 415.936, 699.729 415.604 C 700.061 415.272, 699.471 415.036, 698.417 415.079 C 697.252 415.127, 697.015 415.364, 697.813 415.683 M 458.200 418.200 C 456.744 419.656, 456.645 421.663, 457.989 422.493 C 458.557 422.844, 458.722 422.439, 458.377 421.539 C 458.046 420.679, 458.332 419.305, 459.011 418.487 C 460.487 416.708, 459.900 416.500, 458.200 418.200 M 199.451 420.079 C 199.198 420.489, 199.655 420.727, 200.466 420.608 C 202.556 420.301, 203.307 419.333, 201.456 419.333 C 200.607 419.333, 199.705 419.669, 199.451 420.079 M 388.098 420.500 C 388.688 421.091, 400.149 421.704, 416.148 422 C 439.910 422.439, 443.301 422.311, 444.029 420.948 C 444.770 419.562, 441.778 419.402, 415.979 419.448 C 396.728 419.483, 387.433 419.833, 388.098 420.500 M 600.250 419.716 C 601.763 419.945, 604.237 419.945, 605.750 419.716 C 607.263 419.487, 606.025 419.300, 603 419.300 C 599.975 419.300, 598.737 419.487, 600.250 419.716 M 799.998 420.239 C 799.999 420.646, 808.830 433.808, 819.623 449.489 C 831.973 467.432, 839.859 478, 840.900 478 C 841.809 478, 845.543 474.962, 849.197 471.250 L 855.840 464.500 849.170 455.334 C 845.502 450.293, 838.228 440.305, 833.006 433.139 L 823.512 420.110 811.754 419.805 C 805.287 419.637, 799.997 419.833, 799.998 420.239 M 880.375 434.250 C 849.927 478.800, 824.846 514.552, 805.262 541.321 C 800.103 548.373, 795.636 554.785, 795.334 555.571 C 794.876 556.765, 796.939 557, 807.858 557 C 820.397 557, 820.978 556.908, 822.112 554.750 C 822.763 553.513, 830.935 541.822, 840.272 528.771 L 857.248 505.043 859.937 508.771 C 861.416 510.822, 865.047 516.100, 868.007 520.500 C 874.264 529.802, 890.422 552.694, 892.534 555.250 C 893.771 556.746, 895.794 557, 906.490 557 C 913.998 557, 919 556.608, 919 556.019 C 919 555.480, 910.068 542.768, 899.151 527.769 C 870.468 488.363, 868.825 485.861, 870.441 484.018 C 871.174 483.183, 874.442 478.675, 877.705 474 C 883.694 465.419, 901.256 440.620, 910.813 427.250 L 915.995 420 903.055 420 L 890.115 420 880.375 434.250 M 354 427.500 C 351.571 429.975, 349.809 432, 350.084 432 C 350.359 432, 352.571 429.975, 355 427.500 C 357.429 425.025, 359.191 423, 358.916 423 C 358.641 423, 356.429 425.025, 354 427.500 M 806.624 424.250 C 807.032 424.938, 810.801 430.450, 814.999 436.500 C 819.198 442.550, 826.598 453.350, 831.443 460.500 C 836.289 467.650, 840.432 473.698, 840.650 473.940 C 840.868 474.182, 843.237 472.222, 845.914 469.584 L 850.783 464.789 843.641 454.584 C 839.714 448.971, 833.125 439.572, 829 433.698 L 821.500 423.017 813.691 423.009 C 807.713 423.002, 806.056 423.293, 806.624 424.250 M 881.699 439.750 C 869.740 457.273, 855.585 477.381, 817.342 531.177 L 802.184 552.500 810.828 552.792 C 815.582 552.953, 819.597 552.709, 819.750 552.250 C 820.398 550.307, 856.711 499.596, 857.688 499.271 C 858.278 499.074, 860.130 501.295, 861.803 504.207 C 863.477 507.118, 871.563 519.175, 879.772 531 L 894.697 552.500 902.848 552.790 C 907.332 552.950, 911 552.778, 911 552.408 C 911 551.039, 906.145 543.874, 888.025 518.500 C 877.814 504.200, 868.389 491.062, 867.082 489.305 L 864.706 486.111 879.909 464.805 C 904.624 430.170, 907.150 426.585, 908.133 424.750 C 908.989 423.151, 908.381 423, 901.101 423 L 893.131 423 881.699 439.750 M 191.912 432.567 C 186.806 443.313, 186.949 444.424, 192.225 435 C 194.534 430.875, 196.298 426.892, 196.145 426.150 C 195.991 425.407, 196.315 425.077, 196.864 425.416 C 197.413 425.755, 198.098 425.650, 198.387 425.183 C 198.676 424.716, 198.217 424.333, 197.368 424.333 C 196.417 424.333, 194.320 427.498, 191.912 432.567 M 808.910 425.832 C 809.450 426.840, 810.677 428.302, 811.637 429.082 C 812.598 429.862, 813.088 430.006, 812.727 429.401 C 812.365 428.797, 812.971 427.335, 814.074 426.151 L 816.078 424 812.004 424 C 808.364 424, 808.034 424.195, 808.910 425.832 M 283 441.351 C 273.131 444.856, 270.350 446.599, 264.176 453.151 C 258.550 459.120, 251.995 468.440, 252.005 470.454 C 252.008 471.029, 253.817 468.490, 256.024 464.811 C 262.487 454.039, 271.902 446.765, 284.879 442.515 C 289.146 441.118, 292.452 440.854, 300.879 441.241 C 313.317 441.811, 319.786 443.920, 327.804 450.018 C 330.721 452.236, 333.603 453.745, 334.209 453.371 C 334.828 452.989, 335.028 453.146, 334.667 453.730 C 334.313 454.302, 335.758 456.959, 337.877 459.635 C 339.995 462.311, 342.670 466.300, 343.820 468.500 C 346.969 474.522, 346.417 470.385, 343.151 463.480 C 339.335 455.415, 332.494 448.783, 323.670 444.596 C 314.812 440.393, 308.295 438.994, 297.701 439.021 C 291.720 439.036, 287.740 439.667, 283 441.351 M 357.100 442.108 C 357.045 442.992, 358.472 446.592, 360.272 450.108 C 362.072 453.624, 364.080 457.850, 364.734 459.500 C 365.639 461.779, 365.792 461.899, 365.374 460 C 365.072 458.625, 363.422 454.575, 361.709 451 C 359.996 447.425, 358.280 443.600, 357.897 442.500 C 357.386 441.034, 357.173 440.929, 357.100 442.108 M 392.261 442.667 C 391.030 442.925, 388.440 445.067, 386.506 447.428 L 382.989 451.720 383.275 486.327 C 383.547 519.315, 383.656 521.062, 385.592 523.655 C 390.451 530.164, 391.531 530.470, 410.822 530.825 C 431.297 531.202, 435.139 530.414, 438.713 525.102 C 440.616 522.276, 441 520.377, 441 513.808 L 441 505.912 433.750 506.206 L 426.500 506.500 426.199 510.500 C 425.777 516.102, 424.093 517.002, 414.059 516.986 C 403.452 516.969, 401.536 516.472, 400.122 513.368 C 398.664 510.169, 398.571 461.670, 400.017 458.968 C 401.441 456.307, 407.289 455.038, 415.479 455.613 C 423.249 456.159, 425.991 457.796, 426.015 461.905 C 426.042 466.510, 427.116 467.123, 434.590 466.799 L 441.500 466.500 441.801 461.295 C 442.253 453.471, 440.554 448.525, 436.299 445.277 L 432.661 442.500 413.581 442.349 C 403.086 442.266, 393.493 442.409, 392.261 442.667 M 454.967 452.750 C 458.145 458.663, 464.628 470.911, 469.373 479.969 L 478 496.438 478 513.719 L 478 531 485.500 531 L 493 531 493 512.915 L 493 494.830 502.130 477.165 C 507.151 467.449, 513.226 455.831, 515.630 451.346 C 518.033 446.861, 520 442.905, 520 442.554 C 520 442.203, 516.542 442.047, 512.316 442.208 L 504.633 442.500 502.001 447 C 500.553 449.475, 496.282 457.461, 492.510 464.746 L 485.652 477.992 481.244 469.746 C 478.819 465.211, 474.581 457.113, 471.825 451.750 L 466.815 442 458.001 442 L 449.188 442 454.967 452.750 M 529.762 485.250 C 529.906 509.037, 530.229 529.063, 530.480 529.750 C 530.787 530.588, 533.254 531, 537.969 531 L 545 531 545 514.500 L 545 498 560.750 497.998 C 578.584 497.997, 581.705 497.126, 585.789 491.014 C 588.048 487.634, 588.109 486.978, 587.809 469.334 C 587.527 452.724, 587.318 450.894, 585.412 448.320 C 581.139 442.551, 578.812 442.101, 553 442.048 L 529.500 441.999 529.762 485.250 M 601 485.300 C 601 517.644, 601.304 528.904, 602.200 529.800 C 602.874 530.474, 606.103 531, 609.564 531 L 615.728 531 616.364 526.360 C 616.714 523.809, 617 515.034, 617 506.860 L 617 492 630.978 492 L 644.957 492 645.228 511.250 L 645.500 530.500 653.750 530.790 L 662 531.081 662 486.540 L 662 442 654.023 442 L 646.046 442 645.773 459.710 L 645.500 477.420 631 477.123 C 623.025 476.960, 616.388 476.716, 616.252 476.582 C 615.629 475.967, 615.215 468.396, 615.112 455.750 L 615 442 608 442 L 601 442 601 485.300 M 683.500 443.412 C 681.850 444.145, 679.375 445.963, 678 447.452 L 675.500 450.158 675.219 484.329 C 674.909 522.037, 675.017 522.800, 681.320 527.429 C 683.931 529.346, 685.738 529.523, 705.570 529.805 L 727 530.110 727 523.055 L 727 516 710.035 516 C 694.286 516, 692.996 515.861, 692.035 514.066 C 691.466 513.002, 691 507.615, 691 502.094 L 691 492.056 704.750 491.778 L 718.500 491.500 718.796 484.750 L 719.091 478 705.046 478 L 691 478 691 468.200 C 691 461.911, 691.430 457.970, 692.200 457.200 C 693.038 456.362, 698.467 456, 710.200 456 L 727 456 727 449 L 727 442 706.750 442.039 C 692.115 442.067, 685.668 442.448, 683.500 443.412 M 739 486 L 739 530 746.500 530 L 754 530 754.074 516.750 C 754.115 509.462, 754.227 492.813, 754.324 479.750 L 754.500 456.001 766.179 456 C 779.222 456, 780.444 456.519, 781.573 462.539 C 782.538 467.682, 781.628 479.773, 780.166 481.232 C 779.305 482.090, 775.599 482.500, 768.697 482.500 L 758.500 482.500 758.500 487.455 C 758.500 491.768, 758.792 492.480, 760.753 492.955 C 762.532 493.385, 764.828 497.341, 771.658 511.750 L 780.309 530 789.155 530 C 794.020 530, 797.993 529.888, 797.985 529.750 C 797.976 529.612, 794.225 522.189, 789.649 513.253 C 785.072 504.317, 781.554 496.779, 781.831 496.503 C 782.107 496.226, 783.406 496, 784.716 496 C 788.777 496, 792.887 493.142, 795.119 488.766 C 797.039 485.003, 797.247 483.051, 797.148 469.722 C 797.011 451.386, 795.615 447.089, 788.793 443.992 C 784.946 442.246, 782.135 442.042, 761.750 442.022 L 739 442 739 486 M 656.813 445.683 C 657.534 445.972, 658.397 445.936, 658.729 445.604 C 659.061 445.272, 658.471 445.036, 657.417 445.079 C 656.252 445.127, 656.015 445.364, 656.813 445.683 M 720.750 445.662 C 721.438 445.940, 722.563 445.940, 723.250 445.662 C 723.938 445.385, 723.375 445.158, 722 445.158 C 720.625 445.158, 720.063 445.385, 720.750 445.662 M 785 446.393 C 785 446.609, 785.698 447.054, 786.552 447.382 C 787.442 447.723, 787.843 447.555, 787.493 446.989 C 786.906 446.038, 785 445.583, 785 446.393 M 287.967 450.278 C 283.824 451.538, 278.816 453.569, 276.838 454.791 C 273.166 457.061, 265 465.312, 265 466.753 C 265 467.192, 269.613 465.290, 275.250 462.526 L 285.500 457.500 296.500 457.500 C 306.147 457.500, 308.115 457.801, 312.500 459.951 C 320.100 463.675, 327.504 471.589, 329.417 478.034 C 332.777 489.348, 330.541 499.554, 323.063 507.032 C 315.397 514.698, 311.131 516.486, 300.500 516.486 C 293.086 516.486, 290.756 516.089, 287.278 514.237 C 276.560 508.528, 269.966 498.333, 270.044 487.590 C 270.068 484.241, 270.723 479.717, 271.499 477.538 C 272.275 475.359, 272.818 473.489, 272.705 473.381 C 272.592 473.274, 267.732 475.536, 261.904 478.408 C 256.077 481.280, 247.752 484.824, 243.404 486.283 L 235.500 488.935 248.250 488.967 L 261 489 261.024 491.750 C 261.082 498.478, 268.909 512.104, 275.456 516.875 C 282.015 521.654, 282.629 522.204, 280.750 521.613 C 278.024 520.756, 278.690 521.788, 281.950 523.474 C 285.671 525.398, 287.358 525.419, 284 523.500 C 280.483 521.489, 282.072 521.666, 289.250 524.084 C 299.149 527.419, 304.659 526.991, 314.478 522.126 C 327.690 515.579, 335.019 506.969, 338.102 494.373 C 338.758 491.693, 339.455 489.311, 339.651 489.080 C 339.979 488.693, 352.144 487.089, 368 485.342 L 374.500 484.625 356.603 482.063 L 338.705 479.500 337.501 475.396 C 334.694 465.828, 324.930 455.799, 314.213 451.475 C 304.951 447.738, 297.444 447.395, 287.967 450.278 M 790.100 449.705 C 790.829 450.917, 791.640 451.694, 791.903 451.431 C 792.166 451.168, 791.570 450.176, 790.579 449.226 C 788.857 447.577, 788.835 447.598, 790.100 449.705 M 195.677 452.750 C 195.434 453.163, 194.974 455.075, 194.654 457 L 194.073 460.500 195.181 457.250 C 196.232 454.168, 196.546 454, 201.261 454 C 205.902 454, 206.199 454.150, 205.722 456.250 C 204.091 463.437, 204.183 464.749, 205.950 459.500 C 207.061 456.200, 207.977 453.163, 207.985 452.750 C 207.993 452.337, 205.327 452, 202.059 452 C 198.791 452, 195.919 452.337, 195.677 452.750 M 287.813 453.683 C 288.534 453.972, 289.397 453.936, 289.729 453.604 C 290.061 453.272, 289.471 453.036, 288.417 453.079 C 287.252 453.127, 287.015 453.364, 287.813 453.683 M 545 470.500 L 545 485 555.935 485 C 561.949 485, 568.024 484.561, 569.435 484.025 L 572 483.050 572 470.132 C 572 459.275, 571.748 457.117, 570.418 456.607 C 569.548 456.273, 563.473 456, 556.918 456 L 545 456 545 470.500 M 540.195 461.500 C 540.215 463.150, 540.439 463.704, 540.693 462.731 C 540.947 461.758, 540.930 460.408, 540.656 459.731 C 540.382 459.054, 540.175 459.850, 540.195 461.500 M 193.079 462.583 C 193.127 463.748, 193.364 463.985, 193.683 463.188 C 193.972 462.466, 193.936 461.603, 193.604 461.271 C 193.272 460.939, 193.036 461.529, 193.079 462.583 M 749.858 487.750 C 749.780 502.462, 749.394 512.700, 749 510.500 C 748.408 507.196, 747.457 507.196, 747.896 510.500 C 747.969 511.050, 747.347 510.626, 746.514 509.559 C 745.682 508.491, 744.915 508.041, 744.811 508.559 C 744.707 509.076, 744.342 505.450, 744 500.500 C 743.482 493.002, 743.346 494.462, 743.189 509.250 L 743 527 747 527 L 751 527 751 494 C 751 475.850, 750.775 461, 750.500 461 C 750.225 461, 749.936 473.038, 749.858 487.750 M 192.079 466.705 C 192.016 468.449, 192.719 469.044, 195.446 469.556 C 197.342 469.912, 199.479 469.967, 200.196 469.680 C 200.913 469.393, 200.150 469.115, 198.500 469.064 C 195.073 468.956, 193.545 468.145, 192.729 466 C 192.342 464.984, 192.132 465.211, 192.079 466.705 M 292 466.014 C 290.945 466.706, 291.538 466.807, 294 466.355 C 298.313 465.564, 299.126 464.995, 295.917 465.015 C 294.587 465.024, 292.825 465.473, 292 466.014 M 202.564 467.707 C 202.022 469.132, 202.136 469.247, 203.124 468.267 C 203.808 467.588, 204.115 466.781, 203.807 466.474 C 203.499 466.166, 202.940 466.721, 202.564 467.707 M 305 467 C 304.175 467.533, 303.950 467.969, 304.500 467.969 C 305.050 467.969, 306.175 467.533, 307 467 C 307.825 466.467, 308.050 466.031, 307.500 466.031 C 306.950 466.031, 305.825 466.467, 305 467 M 388.224 492.316 C 387.991 520.261, 388.190 521.844, 392.367 525.228 C 394.211 526.722, 396.969 526.959, 412.734 526.978 L 430.968 527 434.138 524.168 C 436.822 521.770, 437.380 520.468, 437.778 515.668 L 438.248 510 434.124 510 C 430.265 510, 430 510.182, 430 512.826 C 430 514.570, 429.013 516.579, 427.419 518.076 C 425.001 520.347, 424.125 520.500, 413.493 520.500 C 403.521 520.500, 401.805 520.245, 399.323 518.396 C 396.561 516.338, 396.489 516.035, 396 504.396 L 395.500 492.500 394.544 503 C 393.803 511.144, 393.440 512.715, 392.926 510 C 392.561 508.075, 392.204 507.288, 392.132 508.250 C 392.059 509.212, 391.438 510.007, 390.750 510.015 C 389.917 510.026, 390 510.354, 391 511 C 392 511.646, 392.083 511.974, 391.250 511.985 C 390.563 511.993, 389.899 512.788, 389.776 513.750 C 389.653 514.712, 389.304 504.250, 389 490.500 L 388.447 465.500 388.224 492.316 M 540.158 468 C 540.158 469.375, 540.385 469.938, 540.662 469.250 C 540.940 468.563, 540.940 467.438, 540.662 466.750 C 540.385 466.063, 540.158 466.625, 540.158 468 M 294.750 467.662 C 295.438 467.940, 296.563 467.940, 297.250 467.662 C 297.938 467.385, 297.375 467.158, 296 467.158 C 294.625 467.158, 294.063 467.385, 294.750 467.662 M 300.813 467.683 C 301.534 467.972, 302.397 467.936, 302.729 467.604 C 303.061 467.272, 302.471 467.036, 301.417 467.079 C 300.252 467.127, 300.015 467.364, 300.813 467.683 M 307.083 468.365 C 307.313 468.565, 308.625 469.265, 310 469.920 C 312.357 471.042, 312.389 471.022, 310.559 469.555 C 308.966 468.279, 305.711 467.164, 307.083 468.365 M 285.114 471.633 C 282 473.814, 279.044 480.566, 279.044 485.500 C 279.044 490.523, 281.866 496.746, 285.618 499.996 L 288.500 502.493 285.803 499.496 C 278.306 491.167, 278.088 480.683, 285.258 473.250 C 288.714 469.666, 288.668 469.143, 285.114 471.633 M 313 471.378 C 313 471.585, 313.788 472.373, 314.750 473.128 C 316.336 474.371, 316.371 474.336, 315.128 472.750 C 313.821 471.084, 313 470.555, 313 471.378 M 251.079 473.583 C 251.127 474.748, 251.364 474.985, 251.683 474.188 C 251.972 473.466, 251.936 472.603, 251.604 472.271 C 251.272 471.939, 251.036 472.529, 251.079 473.583 M 786.195 474.500 C 786.215 476.150, 786.439 476.704, 786.693 475.731 C 786.947 474.758, 786.930 473.408, 786.656 472.731 C 786.382 472.054, 786.175 472.850, 786.195 474.500 M 793.195 475.500 C 793.215 477.150, 793.439 477.704, 793.693 476.731 C 793.947 475.758, 793.930 474.408, 793.656 473.731 C 793.382 473.054, 793.175 473.850, 793.195 475.500 M 295.465 476.905 C 291.816 478.468, 290.638 480.868, 290.849 486.314 C 291.093 492.616, 294.118 496, 299.509 496 C 305.191 496, 307.700 494.250, 308.910 489.442 C 310.123 484.624, 309.348 481.507, 306.239 478.707 C 303.896 476.597, 298.351 475.669, 295.465 476.905 M 198 478 L 194.500 478.737 198.184 478.868 C 201.412 478.984, 201.910 479.340, 202.214 481.750 C 202.517 484.162, 202.624 484.040, 203.079 480.750 C 203.400 478.432, 203.198 477.050, 202.549 477.132 C 201.972 477.204, 199.925 477.595, 198 478 M 540.232 481 C 540.232 482.925, 540.438 483.712, 540.689 482.750 C 540.941 481.788, 540.941 480.212, 540.689 479.250 C 540.438 478.288, 540.232 479.075, 540.232 481 M 534.208 503.250 L 534 527 537.975 527 L 541.949 527 542.225 511.250 L 542.500 495.500 559.500 495 C 573.532 494.587, 576.953 494.192, 579.096 492.736 C 581.651 490.999, 584.038 487.059, 583.961 484.703 C 583.939 484.041, 583.300 484.929, 582.541 486.675 C 579.932 492.672, 577.405 493.460, 559.545 493.851 C 550.668 494.045, 542.942 494.658, 542.250 495.223 C 541.563 495.785, 540.947 498.327, 540.882 500.872 C 540.783 504.747, 540.661 505.021, 540.132 502.557 C 539.784 500.938, 539.153 499.717, 538.729 499.845 C 538.305 499.972, 537.310 499.713, 536.519 499.271 C 535.467 498.682, 534.992 495.925, 534.748 488.983 C 534.565 483.767, 534.322 490.188, 534.208 503.250 M 690.813 482.683 C 691.534 482.972, 692.397 482.936, 692.729 482.604 C 693.061 482.272, 692.471 482.036, 691.417 482.079 C 690.252 482.127, 690.015 482.364, 690.813 482.683 M 782.682 483.750 C 781.487 484.947, 778.653 485.686, 773.717 486.088 L 766.500 486.677 772.800 486.838 C 779.013 486.998, 785 485.102, 785 482.974 C 785 481.632, 784.693 481.735, 782.682 483.750 M 605 504.833 L 605 527 609 527 L 613 527 612.820 508.750 C 612.686 495.224, 612.474 492.441, 612 498 C 611.648 502.125, 611.244 504.600, 611.101 503.500 C 610.952 502.348, 610.628 502.030, 610.338 502.750 C 609.594 504.594, 607.298 504.269, 606.810 502.250 C 606.578 501.288, 606.259 496.675, 606.102 492 C 605.566 476.041, 605 482.633, 605 504.833 M 679.214 500.300 C 678.892 527.105, 678.786 527, 706.014 527 L 724.127 527 723.813 523.750 L 723.500 520.500 707.774 520 C 687.733 519.363, 687.799 519.409, 686.867 505.225 L 686.228 495.500 686.364 505.760 C 686.439 511.402, 686.350 515.565, 686.167 515.010 C 685.688 513.559, 683.003 513.762, 682.985 515.250 C 682.974 516.083, 682.646 516, 682 515 C 681.188 513.744, 680.993 513.826, 680.801 515.500 C 680.675 516.600, 680.314 509.625, 680 500 L 679.428 482.500 679.214 500.300 M 791.316 485.974 C 790.143 489.081, 785.191 492, 781.091 492 C 780.006 492, 778.866 492.408, 778.558 492.907 C 778.249 493.405, 779.010 493.583, 780.249 493.301 C 789.052 491.298, 790.038 490.827, 791.554 487.895 C 792.416 486.228, 792.975 484.425, 792.796 483.889 C 792.617 483.352, 791.951 484.291, 791.316 485.974 M 254.500 485 C 252.870 485.701, 252.812 485.872, 254.191 485.930 C 255.121 485.968, 256.160 485.550, 256.500 485 C 257.211 483.850, 257.176 483.850, 254.500 485 M 344.813 484.683 C 345.534 484.972, 346.397 484.936, 346.729 484.604 C 347.061 484.272, 346.471 484.036, 345.417 484.079 C 344.252 484.127, 344.015 484.364, 344.813 484.683 M 258.813 485.683 C 259.534 485.972, 260.397 485.936, 260.729 485.604 C 261.061 485.272, 260.471 485.036, 259.417 485.079 C 258.252 485.127, 258.015 485.364, 258.813 485.683 M 266.286 489.500 C 266.294 492.250, 266.488 493.256, 266.718 491.736 C 266.947 490.216, 266.941 487.966, 266.704 486.736 C 266.467 485.506, 266.279 486.750, 266.286 489.500 M 321.232 488 C 321.232 489.925, 321.438 490.712, 321.689 489.750 C 321.941 488.788, 321.941 487.212, 321.689 486.250 C 321.438 485.288, 321.232 486.075, 321.232 488 M 541.030 485.550 C 540.947 488.426, 543.689 489, 557.509 489 C 568.774 489, 572.009 488.687, 573.559 487.445 C 575.434 485.943, 575.426 485.926, 573.316 486.945 C 572.102 487.531, 564.901 488, 557.115 488 C 544.822 488, 542.974 487.785, 542.080 486.250 C 541.519 485.288, 541.047 484.973, 541.030 485.550 M 762.813 486.683 C 763.534 486.972, 764.397 486.936, 764.729 486.604 C 765.061 486.272, 764.471 486.036, 763.417 486.079 C 762.252 486.127, 762.015 486.364, 762.813 486.683 M 635.762 487.707 C 637.006 487.946, 638.806 487.937, 639.762 487.687 C 640.718 487.437, 639.700 487.241, 637.500 487.252 C 635.300 487.263, 634.518 487.468, 635.762 487.707 M 713.500 488 C 713.160 488.550, 713.359 489, 713.941 489 C 714.523 489, 715 488.550, 715 488 C 715 487.450, 714.802 487, 714.559 487 C 714.316 487, 713.840 487.450, 713.500 488 M 264.465 493.201 C 264.674 496.336, 265.352 499.711, 265.970 500.701 C 266.933 502.240, 266.997 502.143, 266.412 500.036 C 266.037 498.681, 265.359 495.306, 264.907 492.536 L 264.085 487.500 264.465 493.201 M 687.200 489.200 C 686.540 489.860, 686.032 491.097, 686.070 491.950 C 686.119 493.019, 686.381 492.879, 686.915 491.500 C 687.467 490.076, 688.959 489.327, 692.095 488.900 L 696.500 488.300 692.450 488.150 C 690.222 488.068, 687.860 488.540, 687.200 489.200 M 489.459 491.067 C 489.096 491.653, 489.014 492.348, 489.276 492.610 C 489.538 492.872, 490.019 492.392, 490.345 491.543 C 491.021 489.781, 490.445 489.471, 489.459 491.067 M 482.201 510.526 L 482 527.553 485.898 527.181 C 488.878 526.897, 489.720 526.420, 489.474 525.155 C 489.297 524.245, 489.032 516.750, 488.885 508.500 C 488.637 494.591, 488.577 494.171, 488.059 502.718 C 487.663 509.240, 487.168 511.726, 486.366 511.218 C 485.742 510.823, 485.007 509.600, 484.732 508.500 C 484.457 507.400, 484.089 508.975, 483.915 512 C 483.713 515.500, 483.380 513.137, 483 505.500 L 482.402 493.500 482.201 510.526 M 768 494.353 C 768 494.865, 778.715 517.738, 781.302 522.750 C 783.420 526.851, 783.664 527, 788.275 527 L 793.054 527 786.054 513.250 C 779.414 500.209, 775.021 492.639, 775.007 494.216 C 775.003 494.609, 776.652 497.984, 778.672 501.716 C 782.513 508.814, 782.340 509.710, 778.374 503.259 C 776.903 500.867, 776.051 500.136, 776.031 501.250 C 776.014 502.212, 775.277 503, 774.393 503 C 773.352 503, 772.996 502.454, 773.382 501.448 C 773.709 500.594, 773.558 500.155, 773.046 500.471 C 772.535 500.788, 771.364 499.461, 770.444 497.523 C 768.992 494.462, 768 493.176, 768 494.353 M 656.868 508.083 C 656.790 514.258, 656.485 517.075, 656.118 515 L 655.500 511.500 653.250 513.750 L 651 516 650.885 509.750 C 650.775 503.779, 650.733 503.678, 649.943 507.500 C 649.488 509.700, 649.089 514.987, 649.058 519.250 L 649 527 654.093 527 L 659.186 527 658.471 512.750 C 658.078 504.913, 657.586 498.313, 657.378 498.083 C 657.170 497.854, 656.941 502.354, 656.868 508.083 M 356.643 504.143 C 354.632 511.003, 355.288 511.659, 357.500 505 C 358.437 502.179, 358.976 499.643, 358.698 499.365 C 358.420 499.086, 357.495 501.236, 356.643 504.143 M 327.511 506.623 C 326.566 508.066, 326.287 508.941, 326.891 508.567 C 328.045 507.854, 330.374 504, 329.650 504 C 329.419 504, 328.457 505.180, 327.511 506.623 M 272.912 507.793 C 274.169 509.604, 276.485 512.038, 278.060 513.202 C 281.603 515.822, 280.812 517.750, 277.157 515.400 C 274.523 513.706, 274.516 513.708, 276.272 515.698 C 279.605 519.475, 287.529 522.955, 295.238 524.027 C 302.972 525.103, 310.147 524.262, 312.371 522.020 C 313.213 521.171, 312.992 521.044, 311.500 521.522 C 309.528 522.154, 309.527 522.141, 311.441 520.582 C 313.703 518.739, 315.436 518.486, 314.408 520.149 C 313.397 521.785, 321.878 516.884, 323.259 515.034 C 324.211 513.758, 324.168 513.710, 323.002 514.750 C 320.085 517.351, 319.751 515.864, 322.563 512.795 L 325.500 509.590 321.737 512.776 C 307.855 524.528, 289.679 523.259, 275.772 509.565 C 271.872 505.726, 271.180 505.297, 272.912 507.793 M 198.500 510.359 C 196.300 511.022, 194.593 512, 194.707 512.532 C 195.300 515.302, 199.228 525.105, 199.597 524.736 C 199.833 524.500, 199.399 522.775, 198.633 520.904 C 195.533 513.332, 195.546 513.253, 199.963 512.506 C 202.183 512.131, 204 511.414, 204 510.912 C 204 510.410, 204.450 510, 205 510 C 205.550 510, 206 510.858, 206 511.907 C 206 517.473, 216.858 536.088, 225.594 545.500 C 228.155 548.259, 229.046 548.931, 227.581 547 C 226.122 545.075, 222.703 540.575, 219.984 537 C 214.393 529.649, 208.115 517.482, 207.290 512.399 C 206.670 508.577, 205.395 508.281, 198.500 510.359 M 271.500 511 C 272.495 512.100, 273.535 513, 273.810 513 C 274.085 513, 273.495 512.100, 272.500 511 C 271.505 509.900, 270.465 509, 270.190 509 C 269.915 509, 270.505 509.900, 271.500 511 M 431.613 512.183 C 431.902 512.650, 432.557 512.774, 433.069 512.457 C 434.377 511.649, 434.230 511.333, 432.544 511.333 C 431.743 511.333, 431.324 511.716, 431.613 512.183 M 337.872 513.750 C 336.629 515.336, 336.664 515.371, 338.250 514.128 C 339.916 512.821, 340.445 512, 339.622 512 C 339.415 512, 338.627 512.788, 337.872 513.750 M 352.144 515.750 C 351.053 518.300, 351.078 518.359, 352.484 516.559 C 353.318 515.491, 354 514.254, 354 513.809 C 354 512.289, 353.322 512.999, 352.144 515.750 M 280.574 516.881 C 279.922 517.936, 284.822 520.661, 289 521.567 C 293.471 522.536, 310.445 523.112, 309.599 522.266 C 309.248 521.915, 305.257 521.599, 300.730 521.564 C 293.974 521.511, 291.474 521.019, 286.769 518.814 C 283.617 517.337, 280.829 516.467, 280.574 516.881 M 316.559 517.532 C 315.491 518.339, 315.068 519, 315.618 519 C 316.168 519, 317.491 518.339, 318.559 517.532 C 319.626 516.724, 320.050 516.064, 319.500 516.064 C 318.950 516.064, 317.626 516.724, 316.559 517.532 M 332.437 520.250 L 329.500 523.500 332.750 520.563 C 335.779 517.825, 336.460 517, 335.687 517 C 335.515 517, 334.052 518.462, 332.437 520.250 M 406.269 522.693 C 407.242 522.947, 408.592 522.930, 409.269 522.656 C 409.946 522.382, 409.150 522.175, 407.500 522.195 C 405.850 522.215, 405.296 522.439, 406.269 522.693 M 412.269 522.693 C 413.242 522.947, 414.592 522.930, 415.269 522.656 C 415.946 522.382, 415.150 522.175, 413.500 522.195 C 411.850 522.215, 411.296 522.439, 412.269 522.693 M 345.405 526.250 L 343.500 528.500 345.750 526.595 C 347.864 524.805, 348.455 524, 347.655 524 C 347.465 524, 346.453 525.013, 345.405 526.250 M 338.872 532.750 C 337.629 534.336, 337.664 534.371, 339.250 533.128 C 340.916 531.821, 341.445 531, 340.622 531 C 340.415 531, 339.627 531.788, 338.872 532.750 M 204 534 C 204.589 535.100, 205.295 536, 205.570 536 C 205.845 536, 205.589 535.100, 205 534 C 204.411 532.900, 203.705 532, 203.430 532 C 203.155 532, 203.411 532.900, 204 534 M 369.511 538.623 C 368.566 540.066, 368.287 540.941, 368.891 540.567 C 370.045 539.854, 372.374 536, 371.650 536 C 371.419 536, 370.457 537.180, 369.511 538.623 M 207 539 C 207.589 540.100, 208.295 541, 208.570 541 C 208.845 541, 208.589 540.100, 208 539 C 207.411 537.900, 206.705 537, 206.430 537 C 206.155 537, 206.411 537.900, 207 539 M 382.578 542.073 C 376.163 551.795, 355.758 569.937, 344.957 575.522 C 342.424 576.832, 342.023 577.585, 342.160 580.776 C 342.313 584.331, 342.338 584.357, 342.716 581.344 C 343.017 578.947, 343.732 578.033, 345.688 577.542 C 348.331 576.879, 356.409 571.671, 363.500 566.058 C 374.768 557.140, 386.551 543.096, 385.844 539.428 C 385.587 538.095, 384.763 538.762, 382.578 542.073 M 212.500 547 C 213.495 548.100, 214.535 549, 214.810 549 C 215.085 549, 214.495 548.100, 213.500 547 C 212.505 545.900, 211.465 545, 211.190 545 C 210.915 545, 211.505 545.900, 212.500 547 M 911 548.378 C 911 548.585, 911.788 549.373, 912.750 550.128 C 914.336 551.371, 914.371 551.336, 913.128 549.750 C 911.821 548.084, 911 547.555, 911 548.378 M 914 552.819 C 914 554.027, 915.897 555.436, 916.591 554.743 C 916.842 554.491, 916.362 553.716, 915.524 553.020 C 914.574 552.231, 914 552.155, 914 552.819 M 220 555.500 C 221.292 556.875, 222.574 558, 222.849 558 C 223.124 558, 222.292 556.875, 221 555.500 C 219.708 554.125, 218.426 553, 218.151 553 C 217.876 553, 218.708 554.125, 220 555.500 M 236.989 559.678 C 235.358 562.251, 234.244 564.578, 234.515 564.849 C 235.241 565.575, 239.872 560.979, 240.542 558.867 C 241.082 557.167, 241.361 557.203, 244.875 559.421 C 249.973 562.640, 263.438 569.305, 269.243 571.485 L 273.986 573.266 273.512 578.883 L 273.037 584.500 274.428 578.508 C 275.193 575.212, 275.644 572.233, 275.430 571.887 C 275.216 571.541, 273.619 570.974, 271.880 570.626 C 267.633 569.777, 251.239 561.948, 245.642 558.097 C 243.166 556.394, 240.873 555, 240.548 555 C 240.222 555, 238.621 557.105, 236.989 559.678 M 232.083 566.283 C 232.313 566.439, 233.400 567.226, 234.500 568.033 C 236.350 569.390, 236.397 569.369, 235.128 567.750 C 234.373 566.788, 233.285 566, 232.711 566 C 232.137 566, 231.854 566.127, 232.083 566.283 M 238.500 570.515 C 240.738 572.352, 249.067 576.756, 247.500 575.275 C 246.950 574.755, 244.250 573.102, 241.500 571.602 C 238.750 570.101, 237.400 569.613, 238.500 570.515 M 249.733 577.124 C 250.412 577.808, 251.219 578.115, 251.526 577.807 C 251.834 577.499, 251.279 576.940, 250.293 576.564 C 248.868 576.022, 248.753 576.136, 249.733 577.124 M 257 580.500 C 258.375 581.286, 259.950 581.929, 260.500 581.929 C 261.050 581.929, 260.375 581.286, 259 580.500 C 257.625 579.714, 256.050 579.071, 255.500 579.071 C 254.950 579.071, 255.625 579.714, 257 580.500 M 354 584 C 354 584.550, 354.477 585, 355.059 585 C 355.641 585, 355.840 584.550, 355.500 584 C 355.160 583.450, 354.684 583, 354.441 583 C 354.198 583, 354 583.450, 354 584 M 354.782 602.343 C 355.198 623.992, 355.676 625.318, 355.850 605.309 C 355.933 595.854, 355.660 587.908, 355.245 587.652 C 354.830 587.395, 354.622 594.006, 354.782 602.343 M 428.607 597.582 C 428.273 598.452, 428 604.718, 428 611.506 L 428 623.848 436.250 624.199 C 444.672 624.557, 448.870 623.802, 450.214 621.687 C 451.472 619.709, 451.091 613.575, 449.575 611.410 C 448.646 610.084, 448.467 608.875, 449.060 607.938 C 450.669 605.395, 450.104 600.104, 448 598 C 446.318 596.318, 444.667 596, 437.607 596 C 430.876 596, 429.094 596.313, 428.607 597.582 M 461 596.440 C 461 596.682, 463.249 600.619, 465.998 605.190 C 470.451 612.594, 470.996 614.127, 470.998 619.250 C 471 624.333, 471.232 625, 473 625 C 474.769 625, 475 624.333, 475 619.223 C 475 613.846, 475.380 612.901, 480.500 605.545 C 483.525 601.199, 486 597.244, 486 596.755 C 486 596.267, 484.776 596.010, 483.279 596.184 C 481.303 596.413, 479.558 597.936, 476.900 601.748 L 473.241 606.996 469.454 601.498 C 466.691 597.486, 465.037 596, 463.334 596 C 462.050 596, 461 596.198, 461 596.440 M 515.020 597.284 C 513.656 597.975, 511.975 599.656, 511.284 601.020 C 509.769 604.015, 509.590 617.366, 511.030 620.055 C 512.611 623.011, 517.381 625, 522.885 625 C 530.325 625, 533 623.684, 533 620.025 C 533 616.493, 531.792 616.232, 528.273 619 C 525.232 621.392, 520.288 621.590, 517.223 619.443 C 515.354 618.135, 515 616.949, 515 612.008 C 515 608.775, 515.439 604.976, 515.975 603.565 C 516.844 601.279, 517.500 601, 521.997 601 C 526.409 601, 527.186 601.314, 528.182 603.500 C 529.825 607.107, 533 606.825, 533 603.073 C 533 598.705, 529.014 595.996, 522.615 596.015 C 519.802 596.023, 516.384 596.594, 515.020 597.284 M 546 597.244 C 546 598.005, 548.004 601.616, 550.453 605.268 C 554.483 611.276, 554.935 612.555, 555.203 618.704 C 555.467 624.734, 555.725 625.500, 557.500 625.500 C 559.262 625.500, 559.560 624.666, 560.002 618.500 C 560.422 612.631, 561.084 610.606, 564.100 605.968 C 570.328 596.388, 570.462 596, 567.545 596 C 565.595 596, 564.192 597.248, 561.379 601.484 L 557.739 606.967 554.088 601.734 C 550.541 596.649, 546 594.129, 546 597.244 M 582.798 608.500 C 582.290 622.832, 582.595 625, 585.117 625 C 586.682 625, 587 624.240, 587 620.500 C 587 616.257, 587.157 616, 589.750 616.002 C 591.928 616.003, 593.209 617.044, 595.907 621.002 C 598.365 624.608, 599.965 626, 601.657 626 C 604.745 626, 604.578 624.262, 601.084 620.048 L 598.221 616.596 601.111 613.897 C 603.540 611.627, 604 610.413, 604 606.273 C 604 598.931, 601.740 597.241, 591.362 596.826 L 583.224 596.500 582.798 608.500 M 618 606.351 C 618 618.722, 619.050 622.364, 623.101 624.042 C 629.657 626.757, 638.827 624.870, 640.870 620.385 C 641.492 619.022, 642 612.946, 642 606.883 C 642 596.025, 641.967 595.866, 639.750 596.180 C 637.603 596.485, 637.477 597.018, 637 607.790 C 636.445 620.311, 636.093 620.959, 629.821 620.985 C 623.778 621.010, 623 619.407, 623 606.929 L 623 596 620.500 596 L 618 596 618 606.351 M 660.500 596.945 C 657.039 598.362, 654.600 601.916, 654.600 605.543 C 654.600 609.558, 656.797 611.638, 662 612.550 C 668.464 613.683, 670.497 614.634, 670.798 616.666 C 671.266 619.813, 668.641 621.248, 663.279 620.776 C 660.651 620.544, 657.712 620.002, 656.750 619.570 C 655.337 618.937, 655 619.275, 655 621.326 C 655 624.348, 656.815 625.102, 664.519 625.283 C 668.600 625.378, 670.669 624.893, 672.737 623.356 C 677.903 619.516, 676.410 611.042, 670.307 609.567 C 660.359 607.164, 660 606.985, 660 604.437 C 660 601.033, 664.135 599.439, 669.116 600.923 C 674.116 602.412, 675 602.288, 675 600.098 C 675 596.834, 665.708 594.814, 660.500 596.945 M 689.223 610.750 C 689.486 624.741, 689.603 625.500, 691.500 625.500 C 693.255 625.500, 693.536 624.734, 693.798 619.250 L 694.095 613 701.548 613 L 709 613 709 619 C 709 624.660, 709.135 625, 711.391 625 C 714.334 625, 714.629 623.130, 714.188 607.250 C 713.877 596.079, 713.858 596, 711.438 596 C 709.114 596, 709 596.293, 709 602.250 L 709 608.500 701.500 608.500 L 694 608.500 694 602.250 C 694 596.232, 693.906 596, 691.473 596 L 688.947 596 689.223 610.750 M 728 596.854 C 728 597.324, 727.888 603.737, 727.750 611.104 L 727.500 624.500 730.318 624.823 L 733.136 625.146 732.818 615.071 C 732.643 609.529, 732.837 604.997, 733.250 604.998 C 733.663 604.999, 734.011 605.563, 734.025 606.250 C 734.038 606.938, 735.638 609.666, 737.580 612.312 C 742.181 618.584, 744.280 618.345, 748.653 611.051 L 751.920 605.601 752.210 615.051 C 752.484 623.987, 752.622 624.517, 754.750 624.820 C 756.995 625.138, 757 625.107, 757 610.570 L 757 596 754.545 596 C 752.567 596, 751.278 597.365, 747.920 603.018 C 745.627 606.878, 743.402 610.251, 742.977 610.514 C 742.551 610.778, 740.100 607.619, 737.530 603.496 C 733.798 597.508, 732.369 596, 730.429 596 C 729.093 596, 728 596.384, 728 596.854 M 780.750 596.746 L 771 597.072 771 611.036 L 771 625 773.500 625 C 775.864 625, 776 624.700, 776 619.500 L 776 614 782.500 614 C 788.814 614, 789 613.927, 789 611.429 C 789 608.915, 788.863 608.864, 782.750 609.119 L 776.500 609.379 776.193 605.189 L 775.885 601 783.443 601 C 790.837 601, 791 600.946, 791 598.500 C 791 597.125, 790.888 596.094, 790.750 596.209 C 790.612 596.324, 786.112 596.566, 780.750 596.746 M 810.843 600.045 C 802.863 608.433, 800.048 619.190, 804.821 623.056 C 808.175 625.772, 813.418 626.491, 817.793 624.836 C 820.813 623.693, 821.748 622.655, 822.840 619.232 C 824.034 615.487, 823.980 614.623, 822.340 611.266 C 820.694 607.897, 820.052 607.468, 816.250 607.193 C 813.913 607.023, 812 606.628, 812 606.314 C 812 605.999, 813.575 603.999, 815.500 601.868 C 817.425 599.738, 819 597.546, 819 596.997 C 819 594.590, 814.395 596.310, 810.843 600.045 M 839.957 597.043 C 836.279 598.469, 833.661 603.382, 834.421 607.433 C 835.233 611.760, 838.130 614.246, 843.167 614.938 L 847.261 615.500 843.204 620.628 L 839.146 625.756 842.291 625.509 C 845.743 625.237, 850.624 620.420, 853.423 614.522 C 855.787 609.540, 855.479 602.668, 852.748 599.494 C 850.216 596.550, 844.202 595.397, 839.957 597.043 M 711.395 610.500 C 711.396 618.200, 711.553 621.218, 711.743 617.206 C 711.934 613.195, 711.932 606.895, 711.741 603.206 C 711.549 599.518, 711.393 602.800, 711.395 610.500 M 523.976 598.900 C 527.418 599.361, 528.744 600.078, 529.712 602 C 530.927 604.414, 530.971 604.424, 530.985 602.285 C 531.004 599.475, 528.192 597.958, 523.316 598.150 L 519.500 598.300 523.976 598.900 M 551.782 603.874 C 553.827 607.104, 555.675 609.592, 555.889 609.401 C 556.462 608.892, 549.709 598, 548.821 598 C 548.404 598, 549.737 600.643, 551.782 603.874 M 561.530 604.250 C 558.225 609.461, 557.476 611.622, 557.023 617.250 C 556.724 620.962, 556.822 624, 557.240 624 C 557.658 624, 558 621.257, 558 617.904 C 558 613.582, 558.541 611.037, 559.859 609.154 C 563.887 603.401, 566.987 598, 566.260 598 C 565.839 598, 563.710 600.813, 561.530 604.250 M 584.157 611.083 C 584.257 619.591, 584.531 622.671, 584.907 619.500 L 585.500 614.500 589.500 614.217 C 593.271 613.949, 593.662 614.192, 596.339 618.463 C 597.901 620.954, 599.658 623.289, 600.244 623.651 C 601.489 624.420, 600.902 623.334, 596.782 617.250 C 594.108 613.302, 593.583 613, 589.385 613 L 584.866 613 585.093 605.993 C 585.218 602.140, 585.023 598.690, 584.660 598.327 C 584.297 597.964, 584.071 603.704, 584.157 611.083 M 620.160 607.816 C 620.072 613.489, 620.441 618.955, 620.979 619.961 C 622.107 622.068, 627.109 624.050, 630.899 623.890 C 632.588 623.819, 631.941 623.475, 629.054 622.909 C 622.281 621.581, 621.689 620.510, 620.960 608.265 L 620.319 597.500 620.160 607.816 M 639.211 607.795 C 639.017 617.248, 638.799 618.292, 636.545 620.545 C 634.892 622.199, 634.558 623, 635.522 623 C 638.869 623, 640.085 618.644, 639.747 607.870 L 639.422 597.500 639.211 607.795 M 658.455 600.455 C 653.732 605.177, 655.890 609.488, 663.710 610.956 C 666.575 611.493, 669.838 612.506, 670.960 613.207 C 673.738 614.942, 673.638 619.440, 670.777 621.443 C 668.271 623.199, 669.119 623.542, 672.066 621.965 C 674.107 620.873, 674.733 615.704, 673.130 613.177 C 672.669 612.449, 669.188 611.073, 665.396 610.119 C 658.686 608.431, 658.491 608.293, 658.171 604.986 C 657.942 602.613, 658.376 601.198, 659.612 600.294 C 661.747 598.734, 669.286 598.592, 672.316 600.055 C 674.426 601.074, 674.434 601.057, 672.559 599.555 C 671.402 598.628, 668.656 598, 665.763 598 C 661.943 598, 660.386 598.523, 658.455 600.455 M 690.242 610.995 C 690.384 618.142, 690.837 623.992, 691.250 623.995 C 691.663 623.998, 692 621.093, 692 617.539 L 692 611.078 700.750 610.745 L 709.500 610.411 700.750 610.206 L 692 610 692 604 C 692 600.635, 691.557 598, 690.992 598 C 690.353 598, 690.079 602.759, 690.242 610.995 M 729 611 C 729 619, 729.385 624, 730 624 C 730.614 624, 731 619.121, 731 611.363 L 731 598.726 736.574 607.113 C 743.126 616.971, 743.285 616.449, 737 605.712 C 734.124 600.798, 731.869 598.020, 730.750 598.012 C 729.172 598.001, 729 599.281, 729 611 M 750.680 601.750 C 745.431 610.143, 742.856 615, 743.655 614.999 C 744.120 614.998, 746.525 611.286, 749 606.749 L 753.500 598.500 753.781 610.750 C 753.967 618.881, 754.434 623, 755.170 623 C 755.921 623, 756.075 621.305, 755.648 617.750 C 755.301 614.862, 755.013 609.237, 755.009 605.250 C 755.004 601.151, 754.571 598, 754.013 598 C 753.469 598, 751.970 599.688, 750.680 601.750 M 773 611 C 773 619.586, 773.364 624, 774.073 624 C 774.743 624, 775.043 621.844, 774.874 618.250 L 774.603 612.500 781.552 611.927 L 788.500 611.353 781.700 611.177 L 774.900 611 775.200 605.250 L 775.500 599.500 783 598.930 L 790.500 598.360 781.750 598.180 L 773 598 773 611 M 811.798 601.250 C 807.572 606.880, 807.606 607.660, 811.878 603.124 C 816.215 598.519, 816.543 598, 815.119 598 C 814.634 598, 813.140 599.462, 811.798 601.250 M 838.455 600.455 C 835.424 603.485, 835.220 608.220, 838 611 C 839.499 612.499, 841.189 612.961, 844.750 612.843 L 849.500 612.686 844.523 612.093 C 840.531 611.617, 839.299 611.005, 838.295 609 C 835.984 604.383, 839.305 599, 844.464 599 C 849.020 599, 851.345 601.077, 851.303 605.110 C 851.235 611.704, 850.623 613.555, 846.800 618.750 C 842.399 624.729, 843.105 625.947, 847.670 620.250 C 852.190 614.610, 853 612.606, 853 607.066 C 853 600.576, 850.714 598, 844.955 598 C 841.993 598, 840.252 598.657, 838.455 600.455 M 592.465 599.745 C 599.670 600.189, 601.005 601.149, 600.985 605.872 C 600.967 609.972, 600.358 611.184, 597.500 612.805 C 595.823 613.756, 595.774 613.944, 597.193 613.970 C 601.044 614.039, 603.477 605.629, 600.965 600.934 C 600.082 599.284, 598.944 599.028, 593.215 599.189 L 586.500 599.378 592.465 599.745 M 433 604.050 L 433 608.100 438.750 607.800 C 444.266 607.512, 444.513 607.382, 444.830 604.609 C 445.244 600.981, 443.785 600.035, 437.750 600.015 L 433 600 433 604.050 M 587 606.500 L 587 612 591.066 612 C 596.890 612, 599 610.581, 599 606.665 C 599 602.222, 597.446 601, 591.800 601 L 587 601 587 606.500 M 839.847 603.436 C 838.431 606.544, 839.277 608.714, 842.472 610.169 C 846.237 611.885, 850 609.912, 850 606.221 C 850 602.513, 848.342 601, 844.279 601 C 841.729 601, 840.699 601.566, 839.847 603.436 M 344.670 608.846 C 345.086 610.436, 344.625 611.237, 342.864 611.989 C 341.181 612.707, 341.045 612.926, 342.393 612.749 C 345.033 612.402, 346.810 609.410, 345.283 607.883 C 344.388 606.988, 344.243 607.215, 344.670 608.846 M 808.270 608.703 C 806.706 609.005, 805.696 610.282, 804.889 612.976 C 802.666 620.395, 805.518 624, 813.611 624 C 818.350 624, 822 620.322, 822 615.545 C 822 609.175, 817.482 606.924, 808.270 608.703 M 808.827 609.674 C 806.235 610.360, 804.749 615.703, 806.267 618.879 C 808.009 622.524, 813.869 623.971, 817.432 621.637 C 819.466 620.303, 820 619.140, 820 616.034 C 820 610.304, 815.700 607.856, 808.827 609.674 M 808.571 612.571 C 805.240 615.902, 807.822 621.013, 812.821 620.985 C 816.382 620.964, 817.710 620.004, 818.493 616.884 C 819.733 611.944, 812.390 608.753, 808.571 612.571 M 433 616 L 433 620 438.878 620 C 445.870 620, 447.964 618.412, 446.168 614.470 C 445.153 612.241, 444.455 612, 439.021 612 L 433 612 433 616 M 529.139 621.033 C 527.841 622.115, 527.246 623, 527.818 623 C 528.827 623, 532 620.291, 532 619.429 C 532 618.747, 531.645 618.946, 529.139 621.033 M 657 621.963 C 657 623.044, 665.289 624.443, 667.187 623.683 C 667.909 623.394, 667.067 623.122, 665.315 623.079 C 663.563 623.036, 660.976 622.561, 659.565 622.025 C 658.061 621.453, 657 621.427, 657 621.963 M 433.813 622.683 C 434.534 622.972, 435.397 622.936, 435.729 622.604 C 436.061 622.272, 435.471 622.036, 434.417 622.079 C 433.252 622.127, 433.015 622.364, 433.813 622.683 M 357.500 643 C 357.500 644.545, 357.837 645.600, 358.250 645.345 C 358.663 645.091, 359 644.035, 359 643 C 359 641.965, 358.663 640.909, 358.250 640.655 C 357.837 640.400, 357.500 641.455, 357.500 643 M 357.195 668.500 C 357.215 670.150, 357.439 670.704, 357.693 669.731 C 357.947 668.758, 357.930 667.408, 357.656 666.731 C 357.382 666.054, 357.175 666.850, 357.195 668.500 M 368 669.378 C 368 669.585, 368.788 670.373, 369.750 671.128 C 371.336 672.371, 371.371 672.336, 370.128 670.750 C 368.821 669.084, 368 668.555, 368 669.378 M 367.500 672 C 368.495 673.100, 369.535 674, 369.810 674 C 370.085 674, 369.495 673.100, 368.500 672 C 367.505 670.900, 366.465 670, 366.190 670 C 365.915 670, 366.505 670.900, 367.500 672" stroke="none" fill="#000000" fill-rule="evenodd"/>
</svg>